# xmcd CD database file
#
# Track frame offsets:
#	150
#	19964
#	36388
#	53946
#	73374
#	91163
#	118181
#	138312
#	154774
#	174905
#	191179
#	213549
#	232314
#	253665
#	275544
#
# Disc length: 3904 seconds
#
# Revision: 0
# Processed by: cddbd v1.5.2PL0 Copyright (c) Steve Scherf et al.
# Submitted via: CDex 1.51
#
DISCID=ea0f3e0f
DTITLE=吳淑敏 - 等你返來
DYEAR=2006
DGENRE=Country
TTITLE0=等你返來
TTITLE1=朋友娘娘
TTITLE2=美麗蝴蝶
TTITLE3=Good bye 真愛
TTITLE4=真心作伴
TTITLE5=船過水無痕
TTITLE6=咱的愛
TTITLE7=笑的時袸尚水
TTITLE8=等你返來
TTITLE9=朋友娘娘-kala
TTITLE10=江蕙-博杯
TTITLE11=秀蘭瑪雅-想念伊
TTITLE12=詹雅雯-濁水溪之戀
TTITLE13=王瑞霞-媽媽喲
TTITLE14=方怡萍-愛妳愛袂煞
EXTD=YEAR: 2006
EXTT0=
EXTT1=
EXTT2=
EXTT3=
EXTT4=
EXTT5=
EXTT6=
EXTT7=
EXTT8=
EXTT9=
EXTT10=
EXTT11=
EXTT12=
EXTT13=
EXTT14=
PLAYORDER=
